<svg xmlns="http://www.w3.org/2000/svg" width="79.998" height="51.216" viewBox="0 0 79.998 51.216"><defs><style>.a{fill:#fff;}</style></defs><g transform="translate(0 -14.033)"><g transform="translate(0 14)"><path class="a" d="M79.9,43.9A19.322,19.322,0,0,0,66.89,29.192c-1.176-9.7-8.947-17.208-18.335-17.273A18.609,18.609,0,0,0,31.543.033c-9.4,0-17.192,7.478-18.416,17.273A19.336,19.336,0,0,0,.1,32.033c-.376,1.829.082,6.939,5.763,7.331H18.547a20.184,20.184,0,0,0-1.518,4.555c-.376,1.829.082,6.939,5.763,7.331H74.155c5.616-.294,6.122-5.518,5.747-7.347ZM16.751,23.314a3.478,3.478,0,0,0,2.873-3.445c0-7.249,5.339-13.159,11.918-13.159a11.827,11.827,0,0,1,10.3,6.514A19.711,19.711,0,0,0,30.057,29.192a18.152,18.152,0,0,0-6.4,3.494H6.792A12.354,12.354,0,0,1,16.751,23.314Zm6.971,21.241a12.377,12.377,0,0,1,9.959-9.371,3.478,3.478,0,0,0,2.873-3.445c0-7.249,5.339-13.159,11.918-13.159,6.563,0,11.918,5.91,11.918,13.012,0,.065-.016.229-.016.294a3.314,3.314,0,0,0,2.89,3.3,12.332,12.332,0,0,1,9.959,9.371Z"/></g></g></svg>