<svg xmlns="http://www.w3.org/2000/svg" width="79.956" height="80" viewBox="0 0 79.956 80"><defs><style>.a{fill:#fff;}</style></defs><path class="a" d="M62.971,37.682C61.616,26.645,51.837,18.041,40,18.041S18.384,26.629,17.029,37.682A22.718,22.718,0,0,0,.163,54.3C-.278,56.18,0,61.894,6.645,62.2H73.339c6.645-.457,6.922-6.024,6.482-7.9A22.748,22.748,0,0,0,62.971,37.682ZM6.727,55.527A16.179,16.179,0,0,1,20.6,43.8a3.323,3.323,0,0,0,2.939-3.314v-.245C23.592,31.673,30.955,24.718,40,24.718s16.424,6.955,16.457,15.527a.732.732,0,0,1-.016.2A3.357,3.357,0,0,0,59.38,43.8,16.219,16.219,0,0,1,73.257,55.543Z"/><path class="a" d="M3.331,37.388a3.324,3.324,0,0,0,3.331-3.331c0-4.229,3.216-8.131,8.18-9.927A3.335,3.335,0,0,0,16.9,20.049a8.648,8.648,0,0,1-.376-2.433c0-6.041,6.3-10.955,14.041-10.955,5.355,0,10.335,2.465,12.669,6.286a3.33,3.33,0,0,0,4.1,1.339A17.017,17.017,0,0,1,53.8,13.029c7.576,0,13.878,4.816,14.024,10.727A3.393,3.393,0,0,0,69.11,26.3a9.876,9.876,0,0,1,4.18,7.755,3.331,3.331,0,0,0,6.661,0,16.354,16.354,0,0,0-5.6-12.049C73.208,13.11,64.506,6.367,53.78,6.367a23.474,23.474,0,0,0-6.5.9C43.478,2.727,37.306,0,30.58,0,19.151,0,9.861,7.9,9.861,17.616A13.367,13.367,0,0,0,9.927,19C3.82,22.155,0,27.82,0,34.057A3.334,3.334,0,0,0,3.331,37.388Z"/><path class="a" d="M15.886,65.273A3.324,3.324,0,0,0,12.555,68.6v1.731a3.331,3.331,0,1,0,6.661,0V68.6a3.334,3.334,0,0,0-3.331-3.331Z"/><path class="a" d="M38.922,65.273A3.324,3.324,0,0,0,35.592,68.6v1.731a3.331,3.331,0,0,0,6.661,0V68.6A3.324,3.324,0,0,0,38.922,65.273Z"/><path class="a" d="M61.976,65.273A3.324,3.324,0,0,0,58.645,68.6v1.731a3.331,3.331,0,0,0,6.661,0V68.6A3.334,3.334,0,0,0,61.976,65.273Z"/><path class="a" d="M28.294,71.608a3.324,3.324,0,0,0-3.331,3.331v1.731a3.331,3.331,0,0,0,6.661,0V74.939A3.334,3.334,0,0,0,28.294,71.608Z"/><path class="a" d="M51.706,71.608a3.324,3.324,0,0,0-3.331,3.331v1.731a3.331,3.331,0,1,0,6.661,0V74.939A3.324,3.324,0,0,0,51.706,71.608Z"/></svg>