<svg xmlns="http://www.w3.org/2000/svg" width="80" height="79.984" viewBox="0 0 80 79.984"><defs><style>.a{fill:#fff;}</style></defs><path class="a" d="M70.824,40l8.2-8.2A3.336,3.336,0,1,0,74.3,27.086l-9.584,9.584H50.841a11.689,11.689,0,0,0-.816-1.976l9.812-9.812H73.388a3.331,3.331,0,0,0,0-6.661H61.8V6.629a3.331,3.331,0,1,0-6.661,0V20.18l-9.812,9.812a11.689,11.689,0,0,0-1.976-.816V15.3l9.584-9.584A3.336,3.336,0,0,0,48.212,1L40,9.176,31.8.98A3.336,3.336,0,1,0,27.086,5.7l9.584,9.584V29.159a11.689,11.689,0,0,0-1.976.816l-9.812-9.812V6.612a3.331,3.331,0,1,0-6.661,0V18.2H6.629a3.331,3.331,0,1,0,0,6.661H20.18l9.812,9.812a11.689,11.689,0,0,0-.816,1.976H15.3L5.714,27.069A3.336,3.336,0,1,0,1,31.788L9.176,40,.98,48.2A3.336,3.336,0,1,0,5.7,52.914l9.584-9.584H29.159a11.689,11.689,0,0,0,.816,1.976l-9.812,9.812H6.612a3.331,3.331,0,1,0,0,6.661H18.2V73.371a3.331,3.331,0,0,0,6.661,0V59.82l9.812-9.812a11.689,11.689,0,0,0,1.976.816V64.7l-9.584,9.584A3.336,3.336,0,0,0,31.788,79l8.2-8.2,8.2,8.2A3.336,3.336,0,0,0,52.9,74.286L43.314,64.7V50.824a11.689,11.689,0,0,0,1.976-.816L55.1,59.82V73.371a3.331,3.331,0,0,0,6.661,0V61.78H73.355a3.331,3.331,0,0,0,0-6.661H59.8l-9.812-9.812a11.689,11.689,0,0,0,.816-1.976H64.686l9.584,9.584A3.336,3.336,0,1,0,78.988,48.2ZM35.347,40A4.653,4.653,0,1,1,40,44.653,4.661,4.661,0,0,1,35.347,40Z"/></svg>