<svg xmlns="http://www.w3.org/2000/svg" width="79.828" height="75.585" viewBox="0 0 79.828 75.585"><defs><style>.a{fill:#fff;}</style></defs><g transform="translate(-0.157 -2)"><g transform="translate(0 2)"><path class="a" d="M63.039,50.232a23.086,23.086,0,0,0-45.9,0A23.119,23.119,0,0,0,.31,67.552c-.652,2.933.652,8.033,6.485,8.033H73.385c5.165,0,7.12-5.051,6.485-8.033A23.018,23.018,0,0,0,63.039,50.232ZM6.811,69.018A16.461,16.461,0,0,1,20.758,56.31,3.34,3.34,0,0,0,23.674,53v-.163a16.44,16.44,0,1,1,32.88-.081v.163a3.316,3.316,0,0,0,2.9,3.389A16.473,16.473,0,0,1,73.4,68.953Z"/><path class="a" d="M3.5,41.466a3.08,3.08,0,0,0,3.324-2.754A13.938,13.938,0,0,1,15.365,25.89a2.65,2.65,0,0,0,1.743-3.031,13.6,13.6,0,0,1-.44-3.373,14.014,14.014,0,0,1,26.444-6.4,3.169,3.169,0,0,0,2,1.515,3.957,3.957,0,0,0,2.7-.228,13.79,13.79,0,0,1,6.045-1.385,14.059,14.059,0,0,1,14,13.621,2.5,2.5,0,0,0,.88,1.809A13.964,13.964,0,0,1,73.336,38.7a3.383,3.383,0,0,0,6.648,0,18.76,18.76,0,0,0-5.507-13.23c-.782-10.183-9.629-18.02-20.595-18.02a21.549,21.549,0,0,0-6.224.912A20.91,20.91,0,0,0,30.7,0c-11.389,0-20.66,8.733-20.66,19.47A18.994,18.994,0,0,0,10.216,22,19.33,19.33,0,0,0,.179,38.7,3.091,3.091,0,0,0,3.5,41.466Z"/></g></g></svg>