<svg xmlns="http://www.w3.org/2000/svg" width="80" height="79.984" viewBox="0 0 80 79.984"><defs><style>.a{fill:#fff;}</style></defs><path class="a" d="M40,15.429A24.849,24.849,0,1,0,64.849,40.278,24.882,24.882,0,0,0,40,15.429Zm0,43.02A18.188,18.188,0,1,1,58.188,40.261,18.214,18.214,0,0,1,40,58.449Z"/><path class="a" d="M40,10.416a3.324,3.324,0,0,0,3.331-3.331V3.331a3.331,3.331,0,0,0-6.661,0V7.086A3.324,3.324,0,0,0,40,10.416Z"/><path class="a" d="M40,69.584a3.324,3.324,0,0,0-3.331,3.331v3.739a3.331,3.331,0,0,0,6.661,0V72.914A3.334,3.334,0,0,0,40,69.584Z"/><path class="a" d="M76.669,36.669H72.914a3.331,3.331,0,0,0,0,6.661h3.755a3.331,3.331,0,0,0,0-6.661Z"/><path class="a" d="M7.086,36.669H3.331a3.331,3.331,0,0,0,0,6.661H7.069a3.331,3.331,0,0,0,.016-6.661Z"/><path class="a" d="M63.576,11.722l-2.661,2.645a3.336,3.336,0,0,0,4.718,4.718l2.645-2.645a3.331,3.331,0,0,0-4.7-4.718Z"/><path class="a" d="M14.367,60.914l-2.645,2.645a3.336,3.336,0,0,0,4.718,4.718l2.645-2.645a3.336,3.336,0,0,0-4.718-4.718Z"/><path class="a" d="M65.633,60.914a3.336,3.336,0,0,0-4.718,4.718l2.645,2.645a3.336,3.336,0,0,0,4.718-4.718Z"/><path class="a" d="M14.367,19.086a3.336,3.336,0,0,0,4.718-4.718l-2.645-2.645a3.336,3.336,0,0,0-4.718,4.718l2.645,2.645Z"/></svg>