<svg xmlns="http://www.w3.org/2000/svg" width="79.984" height="80" viewBox="0 0 79.984 80"><defs><style>.a{fill:#fff;}</style></defs><path class="a" d="M74.482,46.514A20.639,20.639,0,0,0,68.457,35.1a20.762,20.762,0,0,0,.718-3.608,3.371,3.371,0,0,0,2.318.931h2.678a3.331,3.331,0,1,0,0-6.661H71.494a3.376,3.376,0,0,0-2.351.963,20.656,20.656,0,0,0-4.6-10.645h.049a3.367,3.367,0,0,0,2.351-.963l1.894-1.861a3.316,3.316,0,0,0,.033-4.718,3.365,3.365,0,0,0-4.735-.033l-1.894,1.861a3.285,3.285,0,0,0-1,2.5A21.423,21.423,0,0,0,50.22,8.392a3.34,3.34,0,0,0,1.045-2.416V3.331a3.347,3.347,0,0,0-6.694,0V5.959a3.34,3.34,0,0,0,1.045,2.416A21.691,21.691,0,0,0,34.6,12.833a3.275,3.275,0,0,0-1-2.465L31.706,8.506A3.342,3.342,0,1,0,27,13.257L28.9,15.118a3.367,3.367,0,0,0,2.351.963h.016a20.667,20.667,0,0,0-3.559,6.335A20.673,20.673,0,0,0,9.78,43.151,19.782,19.782,0,0,0,19.853,80H60.131A19.792,19.792,0,0,0,74.482,46.514ZM47.9,14.939A14.527,14.527,0,0,1,62.58,29.29a16.315,16.315,0,0,1-.114,1.8,20.973,20.973,0,0,0-15.331-.62,20.716,20.716,0,0,0-12.261-7.788A14.707,14.707,0,0,1,47.9,14.939ZM60.147,73.306H19.853A13.091,13.091,0,0,1,14.612,48.2,3.294,3.294,0,0,0,16.6,44.7c-1.078-7.2,4.751-15.624,13.943-15.771A13.878,13.878,0,0,1,42.89,36.261a3.376,3.376,0,0,0,4.522,1.371A14.066,14.066,0,0,1,67.935,48.49,3.4,3.4,0,0,0,69,50.6a13.07,13.07,0,0,1-8.849,22.71Z"/></svg>