<?xml version="1.0"?>
<svg xmlns="http://www.w3.org/2000/svg" xmlns:xlink="http://www.w3.org/1999/xlink" version="1.1" id="Capa_1" x="0px" y="0px" viewBox="0 0 480.022 480.022" style="enable-background:new 0 0 480.022 480.022;" xml:space="preserve" width="512px" height="512px"><g><g>
	<g>
		<path d="M475.5,4.886c-5.056-5.248-13.024-6.4-19.328-2.816L279.66,101.366l15.808-78.976c1.376-6.944-1.92-13.92-8.128-17.248    c-6.208-3.296-13.888-2.24-18.88,2.784L43.212,233.174c-0.416,0.32-0.8,0.672-1.152,1.056    C14.956,261.75,0.012,297.91,0.012,336.022c0,79.392,64.608,144,144,144c38.144,0,74.304-14.944,101.792-42.016    c0.416-0.416,0.768-0.832,1.152-1.28l191.232-191.2c4.8-4.8,6.048-12.128,3.104-18.24c-2.912-6.112-9.44-9.568-16.192-8.96    l-69.568,7.712L477.676,24.31C481.452,18.07,480.588,10.102,475.5,4.886z M144.012,432.022c-53.024,0-96-42.976-96-96    s42.976-96,96-96s96,42.976,96,96S197.036,432.022,144.012,432.022z" data-original="#000000" class="active-path" data-old_color="#000000" fill="#401E92"/>
	</g>
</g></g> </svg>
