<svg xmlns="http://www.w3.org/2000/svg" width="79.681" height="62.07" viewBox="0 0 79.681 62.07"><defs><style>.a{fill:#fff;}</style></defs><g transform="translate(-0.161 -9.605)"><g transform="translate(0 9)"><path class="a" d="M3.317,17.374H3.48A3.374,3.374,0,0,0,6.8,14.252c.016-.26.6-6.439,12.6-6.976A30.409,30.409,0,0,1,35.041,11a79.021,79.021,0,0,0,7.317,3.447,34.337,34.337,0,0,0,30.211-1.935C76.325,10.285,78.7,7.748,79.659,5a3.317,3.317,0,0,0-6.276-2.146c-.244.683-1.089,2.114-4.2,3.967A27.672,27.672,0,0,1,44.846,8.3a67.463,67.463,0,0,1-6.667-3.138A37.182,37.182,0,0,0,19.106.659C4.358,1.325.26,9.7.163,14.024a3.273,3.273,0,0,0,3.154,3.35Z"/><path class="a" d="M77.593,23.423a3.3,3.3,0,0,0-4.211,2.065c-.244.683-1.089,2.13-4.2,3.967a27.672,27.672,0,0,1-24.341,1.48A67.463,67.463,0,0,1,38.179,27.8a37.182,37.182,0,0,0-19.073-4.5C4.358,23.959.26,32.333.163,36.675a3.274,3.274,0,0,0,3.154,3.35H3.48A3.374,3.374,0,0,0,6.8,36.9c.016-.26.6-6.439,12.6-6.976A30.409,30.409,0,0,1,35.041,33.65,79.021,79.021,0,0,0,42.358,37.1a34.337,34.337,0,0,0,30.211-1.935c3.756-2.228,6.13-4.764,7.089-7.512a3.336,3.336,0,0,0-2.065-4.228Z"/><path class="a" d="M77.593,46.073a3.3,3.3,0,0,0-4.211,2.065c-.244.683-1.089,2.114-4.2,3.967a27.672,27.672,0,0,1-24.341,1.48,67.464,67.464,0,0,1-6.667-3.138,37.182,37.182,0,0,0-19.073-4.5C4.358,46.61.26,54.984.163,59.325a3.274,3.274,0,0,0,3.154,3.35H3.48A3.374,3.374,0,0,0,6.8,59.553c.016-.26.6-6.439,12.6-6.976A30.249,30.249,0,0,1,35.041,56.3a79.02,79.02,0,0,0,7.317,3.447,34.333,34.333,0,0,0,30.211-1.935c3.756-2.228,6.13-4.764,7.089-7.512a3.336,3.336,0,0,0-2.065-4.228Z"/></g></g></svg>