<svg xmlns="http://www.w3.org/2000/svg" width="79.984" height="79.997" viewBox="0 0 79.984 79.997"><defs><style>.a{fill:#fff;}</style></defs><path class="a" d="M19.445,57.469a3.35,3.35,0,0,0-4.555,1.388l-2.873,5.371A3.335,3.335,0,0,0,13.4,68.767a3.455,3.455,0,0,0,4.555-1.388l2.873-5.371A3.363,3.363,0,0,0,19.445,57.469Z"/><path class="a" d="M41.812,57.469a3.35,3.35,0,0,0-4.555,1.388l-2.873,5.371a3.335,3.335,0,0,0,1.388,4.539,3.455,3.455,0,0,0,4.555-1.388L43.2,62.008A3.349,3.349,0,0,0,41.812,57.469Z"/><path class="a" d="M64.18,57.469a3.35,3.35,0,0,0-4.555,1.388l-2.873,5.371a3.335,3.335,0,0,0,1.388,4.539,3.455,3.455,0,0,0,4.555-1.388l2.873-5.371A3.335,3.335,0,0,0,64.18,57.469Z"/><path class="a" d="M52.457,68.359A3.35,3.35,0,0,0,47.9,69.747L45.029,75.1a3.335,3.335,0,0,0,1.388,4.539,3.455,3.455,0,0,0,4.555-1.388L53.845,72.9A3.331,3.331,0,0,0,52.457,68.359Z"/><path class="a" d="M27.51,68.359a3.35,3.35,0,0,0-4.555,1.388L20.082,75.1a3.335,3.335,0,0,0,1.388,4.539,3.455,3.455,0,0,0,4.555-1.388L28.9,72.9A3.345,3.345,0,0,0,27.51,68.359Z"/><path class="a" d="M73.143,21.012A17.691,17.691,0,0,0,48.131,8.147a22.223,22.223,0,0,0-32.751-1.8,21.942,21.942,0,0,0-6.465,13.29,17.584,17.584,0,0,0,8.735,32.882H62.335a17.639,17.639,0,0,0,17.649-17.6A17.384,17.384,0,0,0,73.143,21.012ZM62.351,45.78h-44.7a10.856,10.856,0,0,1-4.2-20.882,3.361,3.361,0,0,0,2.073-3.053,15.414,15.414,0,0,1,28.7-7.51,3.375,3.375,0,0,0,4.947.98,10.892,10.892,0,0,1,17.4,7.82,3.3,3.3,0,0,0,1.567,2.58,10.868,10.868,0,0,1-5.8,20.065Z"/></svg>