<svg xmlns="http://www.w3.org/2000/svg" width="79.666" height="79.692" viewBox="0 0 79.666 79.692"><defs><style>.a{fill:#fff;}</style></defs><g transform="translate(0 -0.159)"><path class="a" d="M20.976,62.8l-3.122-.732,4.553-3.984a3.3,3.3,0,0,0,.309-4.667,3.335,3.335,0,0,0-4.683-.309L8.618,61.333a3.3,3.3,0,0,0-1.041,3.285,3.342,3.342,0,0,0,2.472,2.423l5.154,1.2-3.707,6.7a3.289,3.289,0,0,0,1.3,4.5,3.394,3.394,0,0,0,4.52-1.3l5.821-10.52a3.293,3.293,0,0,0,.13-2.943A3.344,3.344,0,0,0,20.976,62.8Z"/><path class="a" d="M44.179,62.8l-3.122-.732,4.553-3.984a3.3,3.3,0,0,0,.309-4.667,3.335,3.335,0,0,0-4.683-.309l-9.415,8.228a3.3,3.3,0,0,0-1.041,3.285,3.342,3.342,0,0,0,2.472,2.423l5.154,1.2-3.707,6.7a3.289,3.289,0,0,0,1.3,4.5,3.394,3.394,0,0,0,4.52-1.3l5.821-10.52A3.309,3.309,0,0,0,44.179,62.8Z"/><path class="a" d="M66.618,62.8,63.5,62.065l4.553-3.984a3.3,3.3,0,0,0,.309-4.667,3.335,3.335,0,0,0-4.683-.309L54.26,61.333a3.3,3.3,0,0,0-1.041,3.285,3.342,3.342,0,0,0,2.472,2.423l5.154,1.2-3.707,6.7a3.289,3.289,0,0,0,1.3,4.5,3.394,3.394,0,0,0,4.52-1.3l5.821-10.52a3.293,3.293,0,0,0,.13-2.943A3.344,3.344,0,0,0,66.618,62.8Z"/><path class="a" d="M74.78,22.211c.065-3.9-4.959-15.87-21.008-16.179a22.907,22.907,0,0,0-6.5.862A20.452,20.452,0,0,0,41.22,2.5,23.29,23.29,0,0,0,30.764.163C14.293.52,9.317,12.813,9.659,17.984,3.789,20.52,0,25.675,0,31.463c0,4.163,2.927,14.683,17.724,15.122a18.835,18.835,0,0,0,11.691-3.756,19.536,19.536,0,0,0,12.114,4.081,20.026,20.026,0,0,0,9.5-2.341,19.884,19.884,0,0,0,10.911,3.2c4.39.39,17.285-2.764,17.724-15.122A13.518,13.518,0,0,0,74.78,22.211ZM61.951,41.122C58.7,40.846,55.61,40,53.5,38.065a3.324,3.324,0,0,0-2.26-.878,3.4,3.4,0,0,0-2,.667,12.831,12.831,0,0,1-7.675,2.407,12.055,12.055,0,0,1-9.431-4.081,3.348,3.348,0,0,0-5.154-.081,11.559,11.559,0,0,1-9.236,3.854C8.569,39.463,6.7,33.61,6.7,31.48c0-3.577,2.976-6.8,7.4-8a3.329,3.329,0,0,0,2.407-3.8,8.672,8.672,0,0,1-.146-1.593c0-6.211,6.472-11.252,14.439-11.252,5.252,0,10.1,2.244,12.65,5.87A3.36,3.36,0,0,0,47.4,13.886,17.569,17.569,0,0,1,53.8,12.715c7.919,0,14.39,5.024,14.439,11.2a3.3,3.3,0,0,0,1.35,2.65,7.565,7.565,0,0,1,3.432,6.114c-.131,6.39-7.675,8.732-11.074,8.439Z"/></g></svg>